<svg xmlns="http://www.w3.org/2000/svg" viewBox="0 0 10.82 10">
  <g id="calendar" transform="translate(-6.4 -10.8)">
    <g id="Group_1" data-name="Group 1" transform="translate(6.4 10.8)">
      <path id="Path_6" data-name="Path 6" d="M6.782,20.8H16.838a.378.378,0,0,0,.382-.382V11.89a.378.378,0,0,0-.382-.382H14.946v-.326a.382.382,0,1,0-.764,0v.326H9.5v-.326a.382.382,0,1,0-.764,0v.326H6.782a.378.378,0,0,0-.382.382v8.537a.382.382,0,0,0,.382.373Zm.382-8.527H8.739v.205a.382.382,0,1,0,.764,0v-.205h4.678v.205a.382.382,0,0,0,.764,0v-.205h1.519v.988h-9.3v-.988Zm0,1.752h9.292v6.021H7.164V14.025Z" transform="translate(-6.4 -10.8)"/>
      <path id="Path_7" data-name="Path 7" d="M36.781,64.2h-5.5a.382.382,0,1,0,0,.764h5.5a.382.382,0,0,0,0-.764Z" transform="translate(-28.617 -59.223)"/>
      <path id="Path_8" data-name="Path 8" d="M34.031,84H31.282a.382.382,0,1,0,0,.764h2.749a.382.382,0,1,0,0-.764Z" transform="translate(-28.617 -77.178)"/>
    </g>
  </g>
</svg>
